<svg width="58" height="58" viewBox="0 0 58 58" fill="none" xmlns="http://www.w3.org/2000/svg">
<rect x="0.713832" y="0.713832" width="55.6789" height="55.6789" rx="27.8395" stroke="#27C8BF" stroke-width="1.42766"/>
<path d="M33.0023 30.4803C32.8108 30.3846 31.5661 29.81 31.3745 29.7143C31.183 29.6185 30.9915 29.6185 30.8 29.81C30.6085 30.0016 30.2255 30.5761 30.034 30.7676C29.9383 30.9591 29.7468 30.9591 29.5552 30.8633C28.885 30.5761 28.2147 30.1931 27.6402 29.7143C27.1614 29.2355 26.6827 28.661 26.2997 28.0865C26.2039 27.895 26.2997 27.7035 26.3954 27.6077C26.4912 27.512 26.5869 27.3205 26.7784 27.2247C26.8742 27.129 26.9699 26.9375 26.9699 26.8417C27.0657 26.746 27.0657 26.5545 26.9699 26.4587C26.8742 26.363 26.3954 25.2139 26.2039 24.7352C26.1082 24.0649 25.9166 24.0649 25.7251 24.0649H25.2464C25.0549 24.0649 24.7676 24.2564 24.6719 24.3521C24.0973 24.9267 23.8101 25.5969 23.8101 26.363C23.9058 27.2247 24.1931 28.0865 24.7676 28.8525C25.8209 30.3846 27.1614 31.6293 28.7892 32.3954C29.268 32.5869 29.651 32.7784 30.1298 32.8741C30.6085 33.0656 31.0873 33.0656 31.6618 32.9699C32.3321 32.8741 32.9066 32.3954 33.2896 31.8209C33.4811 31.4378 33.4811 31.0548 33.3854 30.6718L33.0023 30.4803V30.4803ZM35.3962 21.7668C31.6618 18.0325 25.6294 18.0325 21.895 21.7668C18.831 24.8309 18.2564 29.5228 20.363 33.2571L19.0225 38.1405L24.0973 36.8C25.5336 37.566 27.0657 37.949 28.5977 37.949C33.8641 37.949 38.0772 33.7359 38.0772 28.4695C38.173 25.9799 37.1197 23.5861 35.3962 21.7668V21.7668ZM32.8108 35.1722C31.5661 35.9382 30.1298 36.417 28.5977 36.417C27.1614 36.417 25.8209 36.034 24.5761 35.3637L24.2889 35.1722L21.3205 35.9382L22.0865 33.0656L21.895 32.7784C19.597 28.9483 20.746 24.1606 24.4804 21.7668C28.2147 19.373 33.0023 20.6178 35.3004 24.2564C37.5985 27.9907 36.5452 32.8741 32.8108 35.1722Z" fill="white"/>
</svg>
