<svg width="73" height="73" viewBox="0 0 73 73" fill="none" xmlns="http://www.w3.org/2000/svg">
<rect x="1.23275" y="1.39413" width="70.4357" height="70.4357" rx="35.2179" fill="url(#paint0_linear_14839_602)"/>
<rect x="1.23275" y="1.39413" width="70.4357" height="70.4357" rx="35.2179" stroke="url(#paint1_linear_14839_602)" stroke-width="1.39324"/>
<path d="M51.1554 38.4861H25.1021C24.8862 38.4861 24.6791 38.5719 24.5264 38.7245C24.3737 38.8772 24.2879 39.0843 24.2879 39.3003V43.3711H21.8454C21.6295 43.3711 21.4224 43.4569 21.2697 43.6096C21.117 43.7622 21.0312 43.9693 21.0312 44.1853V49.0703C21.0312 49.2862 21.117 49.4933 21.2697 49.646C21.4224 49.7986 21.6295 49.8844 21.8454 49.8844H47.8988C48.1147 49.8844 48.3218 49.7986 48.4745 49.646C48.6272 49.4933 48.7129 49.2862 48.7129 49.0703V44.9994H51.1554C51.3714 44.9994 51.5785 44.9136 51.7311 44.761C51.8838 44.6083 51.9696 44.4012 51.9696 44.1853V39.3003C51.9696 39.0843 51.8838 38.8772 51.7311 38.7245C51.5785 38.5719 51.3714 38.4861 51.1554 38.4861ZM47.0846 48.2561H22.6596V44.9994H47.0846V48.2561ZM50.3413 43.3711H25.9163V40.1144H50.3413V43.3711Z" fill="white"/>
<path d="M30.8012 40.1145H29.1729V43.3712H30.8012V40.1145Z" fill="#27C8BF"/>
<path d="M47.0844 40.1145H45.4561V43.3712H47.0844V40.1145Z" fill="#27C8BF"/>
<path d="M27.5444 44.9995H25.916V48.2562H27.5444V44.9995Z" fill="#27C8BF"/>
<path d="M43.8276 44.9995H42.1992V48.2562H43.8276V44.9995Z" fill="#27C8BF"/>
<path d="M37.933 37.4928C37.8982 37.4415 37.854 37.3973 37.8027 37.3625C37.8446 37.3903 37.8829 37.4231 37.9167 37.4602C37.933 37.4765 37.933 37.4765 37.933 37.4928Z" fill="white"/>
<path d="M44.17 24.4011C43.1153 23.5761 41.828 23.1033 40.49 23.0496C39.314 23.0482 38.1619 23.3814 37.1682 24.0103C36.9891 24.1243 36.81 24.2382 36.6634 24.3522C36.3921 24.5553 36.1412 24.7844 35.9144 25.0361L35.8493 25.1013L35.6701 25.2804C35.6509 24.7075 35.5634 24.139 35.4096 23.5869C35.2907 23.5242 35.165 23.475 35.0351 23.4404C34.0418 23.1147 30.6223 22.3982 27.6913 26.4691C26.9111 27.6518 26.4858 29.0332 26.4656 30.45C26.4454 31.8667 26.8312 33.2597 27.5773 34.4642C28.3717 36.0028 29.4618 37.3695 30.7851 38.4862H43.4536C44.0649 37.8364 44.5704 37.0946 44.9516 36.2879C48.2734 29.4164 46.352 26.0457 44.17 24.4011ZM43.4861 35.5715C42.2812 38.0465 40.9297 38.3559 39.8875 38.3559C39.5245 38.3506 39.1661 38.273 38.8334 38.1276C38.5007 37.9822 38.2003 37.772 37.9498 37.5092L37.9335 37.4929C37.8988 37.4416 37.8545 37.3974 37.8033 37.3626C37.7512 37.3265 37.6968 37.2939 37.6404 37.2649C37.5441 37.2185 37.4379 37.1962 37.331 37.1998C37.2255 37.192 37.1196 37.2088 37.0217 37.2486C36.9266 37.2812 36.8383 37.3309 36.7611 37.3952C36.1092 37.987 35.2901 38.3624 34.4163 38.4699C33.0159 38.4699 30.4432 36.5159 29.0265 33.7314C28.4416 32.7816 28.132 31.688 28.132 30.5725C28.132 29.457 28.4416 28.3634 29.0265 27.4135C29.4904 26.595 30.1698 25.9193 30.9909 25.46C31.812 25.0006 32.7433 24.7752 33.6836 24.8082C34.3412 24.8704 34.9733 25.0941 35.5236 25.4595L35.2956 25.6875C35.2223 25.7641 35.1649 25.8546 35.1268 25.9536C35.0887 26.0526 35.0706 26.1582 35.0737 26.2642C35.0767 26.3702 35.1008 26.4746 35.1444 26.5713C35.1881 26.6679 35.2506 26.755 35.3282 26.8273C35.4027 26.9035 35.492 26.9638 35.5906 27.0044C35.6892 27.045 35.795 27.0652 35.9016 27.0637C36.0082 27.0622 36.1134 27.039 36.2108 26.9955C36.3081 26.9521 36.3957 26.8893 36.468 26.811L37.0379 26.2085L37.1845 26.062C37.9617 25.2637 39.0099 24.7858 40.1223 24.7225C41.2346 24.6592 42.3303 25.0151 43.193 25.72C45.6681 27.5601 45.7658 30.8656 43.4861 35.5715Z" fill="white"/>
<path d="M37.0213 37.2485C36.9262 37.2811 36.8379 37.3308 36.7607 37.3951L36.7933 37.3625C36.8603 37.3087 36.938 37.2698 37.0213 37.2485Z" fill="#27C8BF"/>
<path d="M40.4569 19.3696C40.3684 19.2098 40.2288 19.0843 40.0605 19.0135C39.8921 18.9426 39.7048 18.9304 39.5287 18.9788C38.8665 19.1412 38.246 19.4412 37.7073 19.8592C37.1687 20.2772 36.724 20.8039 36.4023 21.405C36.0865 20.6407 35.7051 19.9052 35.2625 19.2067C35.1431 19.0283 34.9581 18.9042 34.7476 18.8615C34.5372 18.8188 34.3184 18.8609 34.1389 18.9788C33.96 19.1017 33.8361 19.2896 33.7935 19.5024C33.751 19.7153 33.7931 19.9363 33.911 20.1186C34.5846 21.1914 35.0898 22.3611 35.409 23.587C35.5629 24.1391 35.6503 24.7076 35.6696 25.2804L35.8487 25.1013L35.9138 25.0362C36.1407 24.7844 36.3915 24.5553 36.6628 24.3523C36.8094 24.2383 36.9885 24.1243 37.1676 24.0103C38.1613 23.3814 39.3134 23.0482 40.4894 23.0496C40.5383 22.9519 40.5871 22.8542 40.636 22.7402C40.8382 22.196 40.9266 21.6161 40.8958 21.0363C40.865 20.4566 40.7156 19.8893 40.4569 19.3696ZM39.1216 22.1215C38.772 22.8415 38.1603 23.4008 37.4119 23.6847C37.4406 23.0897 37.6239 22.5125 37.9438 22.0099C38.2636 21.5074 38.7088 21.0968 39.2356 20.8188C39.3235 21.255 39.2839 21.7072 39.1216 22.1215Z" fill="#27C8BF"/>
<defs>
<linearGradient id="paint0_linear_14839_602" x1="72.3651" y1="0.697512" x2="-5.66748" y2="58.2156" gradientUnits="userSpaceOnUse">
<stop stop-color="#2D3A3D"/>
<stop offset="1" stop-color="#172123"/>
</linearGradient>
<linearGradient id="paint1_linear_14839_602" x1="0.536133" y1="0.69751" x2="81.1551" y2="60.7202" gradientUnits="userSpaceOnUse">
<stop stop-color="#E1F6FF" stop-opacity="0.23"/>
<stop offset="1" stop-color="white" stop-opacity="0.07"/>
</linearGradient>
</defs>
</svg>
