<svg width="73" height="73" viewBox="0 0 73 73" fill="none" xmlns="http://www.w3.org/2000/svg">
<path d="M1.33236 36.7797C1.33236 17.3294 17.0999 1.56185 36.5502 1.56185C56.0005 1.56185 71.7681 17.3294 71.7681 36.7797C71.7681 56.23 56.0005 71.9976 36.5502 71.9976C17.0999 71.9976 1.33236 56.23 1.33236 36.7797Z" fill="url(#paint0_linear_14839_641)"/>
<path d="M1.33236 36.7797C1.33236 17.3294 17.0999 1.56185 36.5502 1.56185C56.0005 1.56185 71.7681 17.3294 71.7681 36.7797C71.7681 56.23 56.0005 71.9976 36.5502 71.9976C17.0999 71.9976 1.33236 56.23 1.33236 36.7797Z" stroke="url(#paint1_linear_14839_641)" stroke-width="1.39324"/>
<mask id="path-2-inside-1_14839_641" fill="white">
<path d="M46.919 26.3899C45.5698 25.0343 43.963 23.9595 42.1923 23.2283C40.4217 22.497 38.5225 22.1239 36.6055 22.1307C28.5729 22.1307 22.0264 28.6458 22.0191 36.6441C22.0191 39.2059 22.6923 41.698 23.9633 43.9045L21.9014 51.4286L29.6342 49.4107C31.7734 50.5696 34.17 51.1771 36.6055 51.1777H36.6129C44.6474 51.1777 51.192 44.6626 51.1993 36.657C51.2012 34.749 50.8238 32.8596 50.0888 31.0975C49.3539 29.3354 48.276 27.7354 46.9172 26.3899H46.919ZM36.6055 48.7204C34.4332 48.7211 32.3008 48.1391 30.4325 47.0357L29.991 46.7721L25.4036 47.9696L26.6286 43.5145L26.3417 43.0549C25.1273 41.1328 24.4851 38.9075 24.4894 36.6368C24.4894 29.9972 29.9285 24.5807 36.6129 24.5807C38.2053 24.5779 39.7826 24.8889 41.2537 25.4957C42.7249 26.1026 44.0608 26.9933 45.1845 28.1166C46.3121 29.2355 47.206 30.5656 47.8147 32.0301C48.4234 33.4947 48.7347 35.0647 48.7309 36.6496C48.7235 43.3131 43.2844 48.7204 36.6055 48.7204Z"/>
</mask>
<path d="M46.919 26.3899C45.5698 25.0343 43.963 23.9595 42.1923 23.2283C40.4217 22.497 38.5225 22.1239 36.6055 22.1307C28.5729 22.1307 22.0264 28.6458 22.0191 36.6441C22.0191 39.2059 22.6923 41.698 23.9633 43.9045L21.9014 51.4286L29.6342 49.4107C31.7734 50.5696 34.17 51.1771 36.6055 51.1777H36.6129C44.6474 51.1777 51.192 44.6626 51.1993 36.657C51.2012 34.749 50.8238 32.8596 50.0888 31.0975C49.3539 29.3354 48.276 27.7354 46.9172 26.3899H46.919ZM36.6055 48.7204C34.4332 48.7211 32.3008 48.1391 30.4325 47.0357L29.991 46.7721L25.4036 47.9696L26.6286 43.5145L26.3417 43.0549C25.1273 41.1328 24.4851 38.9075 24.4894 36.6368C24.4894 29.9972 29.9285 24.5807 36.6129 24.5807C38.2053 24.5779 39.7826 24.8889 41.2537 25.4957C42.7249 26.1026 44.0608 26.9933 45.1845 28.1166C46.3121 29.2355 47.206 30.5656 47.8147 32.0301C48.4234 33.4947 48.7347 35.0647 48.7309 36.6496C48.7235 43.3131 43.2844 48.7204 36.6055 48.7204Z" fill="white"/>
<path d="M46.919 26.3899V29.0961H53.4308L48.8372 24.4808L46.919 26.3899ZM36.6055 22.1307V24.837L36.6151 24.8369L36.6055 22.1307ZM22.0191 36.6441L19.3128 36.6417V36.6441H22.0191ZM23.9633 43.9045L26.5734 44.6198L26.8716 43.5315L26.3084 42.5537L23.9633 43.9045ZM21.9014 51.4286L19.2913 50.7133L18.0537 55.2295L22.5847 54.0471L21.9014 51.4286ZM29.6342 49.4107L30.9233 47.0312L29.9843 46.5225L28.9509 46.7921L29.6342 49.4107ZM36.6055 51.1777L36.6048 53.884H36.6055V51.1777ZM51.1993 36.657L48.4931 36.6544V36.6545L51.1993 36.657ZM46.9172 26.3899V23.6836H40.3383L45.013 28.3128L46.9172 26.3899ZM36.6055 48.7204V46.0141H36.6046L36.6055 48.7204ZM30.4325 47.0357L29.0447 49.3591L29.0563 49.3659L30.4325 47.0357ZM29.991 46.7721L31.3788 44.4487L30.405 43.867L29.3075 44.1535L29.991 46.7721ZM25.4036 47.9696L22.7942 47.2521L21.5513 51.7722L26.0871 50.5881L25.4036 47.9696ZM26.6286 43.5145L29.238 44.232L29.5526 43.0879L28.9242 42.0813L26.6286 43.5145ZM26.3417 43.0549L28.6373 41.6217L28.6334 41.6155L28.6296 41.6094L26.3417 43.0549ZM24.4894 36.6368L27.1957 36.642V36.6368H24.4894ZM36.6129 24.5807V27.287L36.6177 27.287L36.6129 24.5807ZM45.1845 28.1166L43.2712 30.0306L43.2783 30.0376L45.1845 28.1166ZM48.7309 36.6496L46.0246 36.643L46.0246 36.6466L48.7309 36.6496ZM48.8372 24.4808C47.2346 22.8706 45.3268 21.5948 43.2253 20.7269L41.1594 25.7296C42.5992 26.3243 43.905 27.1979 45.0009 28.299L48.8372 24.4808ZM43.2253 20.7269C41.1239 19.8591 38.8703 19.4164 36.596 19.4245L36.6151 24.8369C38.1747 24.8314 39.7195 25.135 41.1594 25.7296L43.2253 20.7269ZM36.6055 19.4245C27.0895 19.4245 19.3216 27.1394 19.3128 36.6417L24.7253 36.6466C24.7313 30.1522 30.0562 24.837 36.6055 24.837V19.4245ZM19.3128 36.6441C19.3128 39.6834 20.1123 42.6409 21.6183 45.2553L26.3084 42.5537C25.2723 40.7551 24.7253 38.7284 24.7253 36.6441H19.3128ZM21.3533 43.1892L19.2913 50.7133L24.5114 52.1439L26.5734 44.6198L21.3533 43.1892ZM22.5847 54.0471L30.3175 52.0293L28.9509 46.7921L21.218 48.81L22.5847 54.0471ZM28.3451 51.7902C30.8804 53.1637 33.7199 53.8832 36.6048 53.884L36.6062 48.4715C34.6202 48.471 32.6665 47.9756 30.9233 47.0312L28.3451 51.7902ZM36.6055 53.884H36.6129V48.4715H36.6055V53.884ZM36.6129 53.884C46.1319 53.884 53.8968 46.1679 53.9056 36.6594L48.4931 36.6545C48.4871 43.1573 43.1629 48.4715 36.6129 48.4715V53.884ZM53.9056 36.6596C53.9078 34.3929 53.4594 32.1485 52.5865 30.0557L47.5911 32.1392C48.1881 33.5707 48.4946 35.1051 48.4931 36.6544L53.9056 36.6596ZM52.5865 30.0557C51.7137 27.963 50.4339 26.0637 48.8214 24.4669L45.013 28.3128C46.1181 29.4072 46.9941 30.7077 47.5911 32.1392L52.5865 30.0557ZM46.9172 29.0961H46.919V23.6836H46.9172V29.0961ZM36.6046 46.0141C34.9161 46.0147 33.2594 45.5623 31.8087 44.7055L29.0563 49.3659C31.3422 50.716 33.9503 51.4275 36.6064 51.4266L36.6046 46.0141ZM31.8202 44.7124L31.3788 44.4487L28.6033 49.0954L29.0448 49.3591L31.8202 44.7124ZM29.3075 44.1535L24.72 45.3511L26.0871 50.5881L30.6746 49.3906L29.3075 44.1535ZM28.013 48.6871L29.238 44.232L24.0192 42.797L22.7942 47.2521L28.013 48.6871ZM28.9242 42.0813L28.6373 41.6217L24.0461 44.4881L24.333 44.9477L28.9242 42.0813ZM28.6296 41.6094C27.6891 40.1208 27.1923 38.3985 27.1957 36.642L21.7832 36.6317C21.7778 39.4164 22.5656 42.1448 24.0538 44.5004L28.6296 41.6094ZM27.1957 36.6368C27.1957 31.5049 31.41 27.287 36.6129 27.287V21.8745C28.447 21.8745 21.7831 28.4895 21.7831 36.6368H27.1957ZM36.6177 27.287C37.8547 27.2848 39.0796 27.5264 40.2217 27.9975L42.2857 22.994C40.4856 22.2514 38.5559 21.871 36.6081 21.8745L36.6177 27.287ZM40.2217 27.9975C41.3638 28.4686 42.4001 29.1598 43.2712 30.0306L47.0978 26.2027C45.7215 24.8269 44.0859 23.7366 42.2857 22.994L40.2217 27.9975ZM43.2783 30.0376C44.1523 30.9049 44.8446 31.9352 45.3157 33.0688L50.3137 30.9915C49.5675 29.196 48.4719 27.5661 47.0907 26.1956L43.2783 30.0376ZM45.3157 33.0688C45.7868 34.2023 46.0276 35.417 46.0246 36.643L51.4371 36.6563C51.4419 34.7124 51.06 32.7871 50.3137 30.9915L45.3157 33.0688ZM46.0246 36.6466C46.0189 41.8069 41.8007 46.0141 36.6055 46.0141V51.4266C44.7681 51.4266 51.4281 44.8193 51.4371 36.6526L46.0246 36.6466Z" fill="#00B3FF" fill-opacity="0.1" mask="url(#path-2-inside-1_14839_641)"/>
<path d="M40.7665 38.5027C41.1031 38.6273 42.8928 39.5044 43.2552 39.6856C43.6194 39.8669 43.864 39.9566 43.9541 40.1105C44.0461 40.2624 44.0461 40.9876 43.7444 41.8372C43.4373 42.685 41.9823 43.4577 41.2833 43.5639C40.6543 43.6537 39.8652 43.6958 38.9914 43.4175C38.4598 43.249 37.7793 43.0274 36.9148 42.652C33.2562 41.0773 30.8723 37.4169 30.6921 37.1733L30.6891 37.1694C30.4946 36.9119 29.2021 35.2011 29.2021 33.4214C29.2021 31.6324 30.1384 30.7553 30.4732 30.3927C30.5953 30.2546 30.7448 30.1432 30.9122 30.0654C31.0797 29.9875 31.2615 29.945 31.4462 29.9404C31.6909 29.9404 31.9355 29.9404 32.1452 29.9532C32.3696 29.9624 32.6694 29.8635 32.9637 30.5758C33.2709 31.2973 33.9975 33.0863 34.0894 33.2676C34.1796 33.4489 34.2366 33.6576 34.117 33.903C33.9975 34.1447 33.9368 34.2985 33.7528 34.5072C33.5707 34.716 33.3684 34.9797 33.2084 35.1408C33.0263 35.3221 32.8368 35.5162 33.0465 35.8787C33.2635 36.2395 33.9901 37.4297 35.0754 38.391C36.4659 39.6307 37.6413 40.0116 38.0037 40.1947C38.3679 40.3741 38.5849 40.3467 38.7946 40.1031C39.0043 39.8669 39.7033 39.0447 39.9479 38.684C40.187 38.3215 40.4317 38.3837 40.7665 38.5027Z" fill="#27C8BF"/>
<path d="M40.7665 38.5027C41.1031 38.6273 42.8928 39.5044 43.2552 39.6856C43.3276 39.7217 43.3953 39.7541 43.458 39.7842C43.7106 39.9051 43.8819 39.9872 43.9541 40.1105L40.7665 38.5027ZM40.7665 38.5027L40.552 39.0824L40.5487 39.0914L40.3014 39.7598M40.7665 38.5027L40.5588 39.0869L40.5555 39.0961L40.319 39.7612M40.3014 39.7598C40.261 39.7561 40.2353 39.7503 40.2286 39.7488C40.2269 39.7484 40.226 39.7482 40.226 39.7482C40.226 39.7483 40.2441 39.7533 40.2999 39.773M40.3014 39.7598L40.297 39.7718C40.2969 39.7718 40.2978 39.7721 40.2999 39.773M40.3014 39.7598C40.307 39.7603 40.3129 39.7608 40.319 39.7612M40.2999 39.773C40.3093 39.7768 40.3422 39.7903 40.4072 39.8191C40.4788 39.8508 40.5697 39.8923 40.6763 39.9418C40.6805 39.9437 40.6847 39.9457 40.689 39.9477C40.8389 39.7591 40.975 39.5804 41.0678 39.4435L41.0727 39.4363L41.0775 39.429C41.0763 39.4309 41.073 39.4358 41.0674 39.4432C41.047 39.4705 40.996 39.5312 40.906 39.5942C40.7785 39.6835 40.626 39.7403 40.4719 39.7575C40.4113 39.7643 40.3593 39.764 40.319 39.7612M40.2999 39.773C40.3041 39.7745 40.3085 39.776 40.3132 39.7777L40.319 39.7612M34.1766 39.4026C34.9635 40.1038 35.6964 40.5679 36.2893 40.8835C36.5847 41.0408 36.8412 41.1589 37.0418 41.2476C37.1055 41.2757 37.1709 41.3041 37.2242 41.3272C37.249 41.338 37.2712 41.3476 37.2894 41.3555C37.3217 41.3696 37.346 41.3804 37.3652 41.3891L37.3864 41.399C37.3915 41.4014 37.3936 41.4025 37.3934 41.4024L37.3934 41.4024L37.4056 41.4085C37.4176 41.4144 37.4298 41.4203 37.4423 41.4263C37.4436 41.4269 37.4449 41.4275 37.4462 41.4281C37.5695 41.4869 37.7218 41.5501 37.8966 41.5962C37.755 41.5392 37.6075 41.4777 37.4537 41.4109L37.4497 41.4092C37.4375 41.4039 37.4253 41.3986 37.4131 41.3933C37.409 41.3915 37.4048 41.3897 37.4007 41.3879C36.1985 40.8616 35.146 40.077 34.2858 39.2823M34.1766 39.4026C34.1771 39.403 34.1776 39.4035 34.1781 39.4039L34.2858 39.2823M34.1766 39.4026C34.1761 39.4021 34.1755 39.4016 34.1749 39.4011L34.2831 39.2798M34.1766 39.4026C32.9286 38.2965 32.1152 36.9555 31.8871 36.5764L31.881 36.5663L31.8752 36.5562C31.8401 36.4956 31.8078 36.4332 31.7785 36.3692C31.7776 36.3671 31.7767 36.3651 31.7758 36.3631L31.7797 36.3683L31.7797 36.3683C31.7959 36.3902 31.8207 36.4255 31.854 36.4727C31.8684 36.4931 31.8844 36.5159 31.902 36.5407C31.9063 36.5468 31.9107 36.5531 31.9152 36.5594C32.2441 37.0237 33.0731 38.1613 34.2831 39.2798M34.2858 39.2823C34.2849 39.2815 34.284 39.2806 34.2831 39.2798M34.2858 39.2823L35.0754 38.391L34.2831 39.2798M33.4626 33.5792L32.9042 33.303C32.8868 33.3381 32.8709 33.3709 32.8572 33.3991L32.821 33.4735C32.7996 33.517 32.7876 33.5401 32.7787 33.5559C32.7715 33.5688 32.7659 33.5783 32.7541 33.5932C32.7622 33.6121 32.7701 33.6304 32.7777 33.648C32.7797 33.6526 32.7817 33.6573 32.7837 33.6618C32.8231 33.7526 32.8553 33.8243 32.8772 33.8686C32.871 33.855 32.8472 33.797 32.8368 33.7081C32.8364 33.7052 32.8361 33.7022 32.8358 33.6992C32.8357 33.6982 32.8356 33.6972 32.8355 33.6962C32.8213 33.5552 32.8489 33.4164 32.9006 33.3103L33.4577 33.5817M33.4626 33.5792L33.4577 33.5817M33.4626 33.5792L33.4689 33.5824M33.4626 33.5792L34.0894 33.2676L33.4689 33.5824M33.4577 33.5817L33.4641 33.5848M33.4577 33.5817L32.9749 33.8217L32.9699 33.8242L32.8778 33.87C32.8795 33.8734 32.8812 33.8767 32.8827 33.8798L32.9781 33.8314L32.983 33.8289L33.4641 33.5848M33.4641 33.5848L33.4689 33.5824M33.4641 33.5848L34.117 33.903L33.4689 33.5824M42.7887 40.798C42.788 40.7968 42.7874 40.7957 42.7867 40.7945C42.7699 40.7658 42.7556 40.7387 42.7435 40.7136C42.7431 40.7128 42.7426 40.7119 42.7422 40.711C42.7209 40.6668 42.7063 40.6296 42.6967 40.6028C42.6795 40.555 42.6698 40.5171 42.6646 40.4941C42.6569 40.4603 42.6544 40.4387 42.6538 40.4333C42.6548 40.4456 42.657 40.5001 42.6487 40.5969C42.6419 40.6761 42.6293 40.7702 42.6089 40.8754C42.6242 40.883 42.6378 40.8898 42.6498 40.8958L42.6522 40.897C42.7348 40.9381 42.8143 40.9762 42.8774 41.0064C42.8924 41.0136 42.9064 41.0203 42.9193 41.0265C42.9954 41.063 43.0345 41.0826 43.0596 41.0963C43.0657 41.0997 43.0684 41.1013 43.0684 41.1013C43.0684 41.1013 43.067 41.1004 43.0643 41.0987C43.0581 41.0947 43.0402 41.0831 43.0154 41.0634C42.9688 41.0262 42.8785 40.9453 42.7965 40.811C42.7939 40.8067 42.7913 40.8024 42.7887 40.798ZM42.7887 40.798C42.788 40.7969 42.7873 40.7957 42.7867 40.7946L42.7915 40.8028L42.7965 40.811C42.7938 40.8066 42.7912 40.8023 42.7887 40.798ZM39.8122 40.995C39.8148 40.992 39.8174 40.989 39.82 40.986L38.7946 40.1031L39.8065 41.0014C39.8084 40.9994 39.8103 40.9972 39.8122 40.995ZM32.2515 34.1841C32.2504 34.1851 32.2493 34.1862 32.2483 34.1873L33.2084 35.1408L32.2537 34.1818C32.253 34.1825 32.2523 34.1833 32.2515 34.1841ZM31.7187 31.1059C31.7429 31.1626 31.7697 31.2261 31.7987 31.2951C31.8974 31.2965 31.9847 31.2991 32.0626 31.3039L32.0763 31.3047L32.09 31.3052C32.1572 31.308 32.2228 31.3069 32.2465 31.3065C32.2488 31.3065 32.2508 31.3064 32.2522 31.3064C32.2678 31.3062 32.2736 31.3062 32.2736 31.3062C32.2736 31.3062 32.2679 31.3061 32.2602 31.3057C32.2312 31.3043 32.1696 31.299 32.0912 31.2771C32.0826 31.2746 32.0737 31.272 32.0647 31.2692C32.0303 31.2584 31.9931 31.2444 31.9544 31.2263C31.865 31.1844 31.7978 31.1349 31.7508 31.0922C31.7469 31.0887 31.7431 31.0851 31.7395 31.0817C31.7169 31.0602 31.6997 31.041 31.6876 31.0258C31.6766 31.0122 31.6716 31.0042 31.6715 31.0042C31.6715 31.0042 31.687 31.0293 31.7131 31.0925L31.7159 31.0992L31.7187 31.1059ZM31.4488 31.2936C31.4603 31.2936 31.4716 31.2936 31.4829 31.2936L31.4867 31.2892C31.4852 31.2909 31.4837 31.2919 31.4826 31.2924C31.4815 31.2929 31.4805 31.2931 31.4797 31.2931L31.4795 31.2858L31.4794 31.2828L31.4462 29.9404V31.2142V31.2534V31.2912V31.2936C31.4471 31.2936 31.4479 31.2936 31.4488 31.2936ZM41.0923 42.2244C41.0893 42.2248 41.0863 42.2252 41.0833 42.2256C41.0821 42.2258 41.081 42.226 41.0801 42.2262L41.2833 43.5639L41.0923 42.2244ZM42.4765 41.365C42.4764 41.365 42.4762 41.3653 42.4758 41.3659C42.4737 41.3721 42.4715 41.3783 42.4693 41.3845L43.7444 41.8372L42.4722 41.3763C42.4749 41.3688 42.4766 41.3651 42.4765 41.365Z" stroke="#00B3FF" stroke-opacity="0.1" stroke-width="2.70625"/>
<defs>
<linearGradient id="paint0_linear_14839_641" x1="72.4647" y1="0.865237" x2="-5.56787" y2="58.3834" gradientUnits="userSpaceOnUse">
<stop stop-color="#2D3A3D"/>
<stop offset="1" stop-color="#172123"/>
</linearGradient>
<linearGradient id="paint1_linear_14839_641" x1="0.635742" y1="0.865234" x2="81.2547" y2="60.8879" gradientUnits="userSpaceOnUse">
<stop stop-color="#E1F6FF" stop-opacity="0.23"/>
<stop offset="1" stop-color="white" stop-opacity="0.07"/>
</linearGradient>
</defs>
</svg>
