<svg width="73" height="73" viewBox="0 0 73 73" fill="none" xmlns="http://www.w3.org/2000/svg">
<path d="M1.33236 36.612C1.33236 17.1617 17.0999 1.39413 36.5502 1.39413C56.0005 1.39413 71.7681 17.1617 71.7681 36.612C71.7681 56.0623 56.0005 71.8298 36.5502 71.8298C17.0999 71.8298 1.33236 56.0623 1.33236 36.612Z" fill="url(#paint0_linear_14839_619)"/>
<path d="M1.33236 36.612C1.33236 17.1617 17.0999 1.39413 36.5502 1.39413C56.0005 1.39413 71.7681 17.1617 71.7681 36.612C71.7681 56.0623 56.0005 71.8298 36.5502 71.8298C17.0999 71.8298 1.33236 56.0623 1.33236 36.612Z" stroke="url(#paint1_linear_14839_619)" stroke-width="1.39324"/>
<path d="M48.1086 21.0537H46.3008V42.7471H48.1086V21.0537Z" fill="white"/>
<path d="M42.6846 46.3628H20.9912V48.1706H42.6846V46.3628Z" fill="white"/>
<path d="M26.4142 35.5164H24.6064V44.5553H26.4142V35.5164Z" fill="white"/>
<path d="M31.8381 30.0928H30.0303V44.555H31.8381V30.0928Z" fill="white"/>
<path d="M37.2619 24.6694H35.4541V31.9005H37.2619V24.6694Z" fill="white"/>
<path d="M42.6857 21.0537H40.8779V31.9004H42.6857V21.0537Z" fill="white"/>
<path d="M39.0688 44.5549C37.9962 44.5549 36.9477 44.2369 36.0558 43.6409C35.1639 43.045 34.4688 42.198 34.0583 41.207C33.6479 40.216 33.5405 39.1256 33.7497 38.0736C33.959 37.0215 34.4755 36.0552 35.234 35.2967C35.9924 34.5382 36.9588 34.0217 38.0108 33.8125C39.0628 33.6032 40.1533 33.7106 41.1443 34.1211C42.1353 34.5316 42.9823 35.2267 43.5782 36.1185C44.1741 37.0104 44.4922 38.059 44.4922 39.1316C44.4922 40.57 43.9208 41.9494 42.9037 42.9665C41.8867 43.9835 40.5072 44.5549 39.0688 44.5549ZM39.0688 35.516C38.3538 35.516 37.6547 35.7281 37.0602 36.1254C36.4656 36.5226 36.0022 37.0873 35.7285 37.748C35.4549 38.4086 35.3833 39.1356 35.5228 39.837C35.6623 40.5383 36.0066 41.1825 36.5123 41.6882C37.0179 42.1938 37.6621 42.5382 38.3635 42.6777C39.0648 42.8172 39.7918 42.7456 40.4525 42.4719C41.1131 42.1983 41.6778 41.7349 42.0751 41.1403C42.4724 40.5457 42.6844 39.8467 42.6844 39.1316C42.6844 38.1727 42.3035 37.2531 41.6254 36.575C40.9474 35.897 40.0278 35.516 39.0688 35.516Z" fill="#27C8BF"/>
<path d="M42.414 41.2063L41.1357 42.4846L46.5557 47.9046L47.834 46.6263L42.414 41.2063Z" fill="#27C8BF"/>
<defs>
<linearGradient id="paint0_linear_14839_619" x1="72.4647" y1="0.697512" x2="-5.56787" y2="58.2156" gradientUnits="userSpaceOnUse">
<stop stop-color="#2D3A3D"/>
<stop offset="1" stop-color="#172123"/>
</linearGradient>
<linearGradient id="paint1_linear_14839_619" x1="0.635742" y1="0.69751" x2="81.2547" y2="60.7202" gradientUnits="userSpaceOnUse">
<stop stop-color="#E1F6FF" stop-opacity="0.23"/>
<stop offset="1" stop-color="white" stop-opacity="0.07"/>
</linearGradient>
</defs>
</svg>
