<svg width="19" height="19" viewBox="0 0 19 19" fill="none" xmlns="http://www.w3.org/2000/svg">
<rect x="18.0479" y="0.803711" width="17.5518" height="17.5518" rx="8.77588" transform="rotate(90 18.0479 0.803711)" fill="url(#paint0_linear_14839_9)"/>
<path d="M12.0557 12.0796L13.7256 13.5796H11.8506L11.1943 12.9819C10.4971 13.5034 9.66504 13.7612 8.69824 13.7612C7.64941 13.7612 6.80566 13.5503 6.16113 13.1226C5.5166 12.7007 5.19434 12.1382 5.19434 11.4292C5.19434 10.4858 5.87988 9.67725 7.12207 9.29639C6.74121 8.92725 6.46582 8.59326 6.30176 8.28271C6.1377 7.97217 6.05566 7.59717 6.05566 7.15771C6.05566 6.50146 6.30176 5.97412 6.79395 5.57568C7.28613 5.17725 7.93066 4.97803 8.7334 4.97803C9.52441 4.97803 10.1631 5.17725 10.6494 5.57568C11.1299 5.97412 11.3701 6.50146 11.3701 7.15771C11.3701 8.2417 10.5264 9.021 9.0791 9.39014L11.1064 11.2183C11.2529 10.814 11.3232 10.2866 11.3232 9.64209H12.7529C12.7529 10.5796 12.5186 11.394 12.0557 12.0796ZM8.78027 6.17334C7.88379 6.17334 7.50879 6.49561 7.50879 7.26904C7.50879 7.50928 7.5791 7.74365 7.72559 7.98389C7.87207 8.22412 8.11816 8.51709 8.46973 8.85107C9.02051 8.66943 9.41895 8.45264 9.66504 8.2124C9.90527 7.97217 10.0283 7.66162 10.0283 7.26904C10.0283 6.50146 9.66504 6.17334 8.78027 6.17334ZM8.69824 12.5835C9.39551 12.5835 9.94043 12.4604 10.3389 12.2144L7.71387 9.83545C7.01074 10.1343 6.65918 10.5854 6.65918 11.189C6.65918 12.1675 7.27441 12.5835 8.69824 12.5835Z" fill="white"/>
<defs>
<linearGradient id="paint0_linear_14839_9" x1="35.5996" y1="0.803712" x2="16.532" y2="14.8585" gradientUnits="userSpaceOnUse">
<stop stop-color="#2D3A3D"/>
<stop offset="1" stop-color="#172123"/>
</linearGradient>
</defs>
</svg>
