<svg width="73" height="73" viewBox="0 0 73 73" fill="none" xmlns="http://www.w3.org/2000/svg">
<path d="M1.23275 36.7797C1.23275 17.3294 17.0003 1.56185 36.4506 1.56185C55.9009 1.56185 71.6685 17.3294 71.6685 36.7797C71.6685 56.23 55.9009 71.9976 36.4506 71.9976C17.0003 71.9976 1.23275 56.23 1.23275 36.7797Z" fill="url(#paint0_linear_14839_632)"/>
<path d="M1.23275 36.7797C1.23275 17.3294 17.0003 1.56185 36.4506 1.56185C55.9009 1.56185 71.6685 17.3294 71.6685 36.7797C71.6685 56.23 55.9009 71.9976 36.4506 71.9976C17.0003 71.9976 1.23275 56.23 1.23275 36.7797Z" stroke="url(#paint1_linear_14839_632)" stroke-width="1.39324"/>
<path d="M28.7409 53.8219H23.0601C22.0919 53.8209 21.1636 53.4358 20.479 52.7512C19.7944 52.0665 19.4093 51.1383 19.4082 50.17V49.4599C19.4099 47.9269 20.0197 46.4572 21.1037 45.3732C22.1877 44.2892 23.6574 43.6795 25.1904 43.6777H26.6106C26.8258 43.6777 27.0322 43.7632 27.1844 43.9154C27.3366 44.0676 27.4221 44.274 27.4221 44.4893C27.4221 44.7045 27.3366 44.9109 27.1844 45.0631C27.0322 45.2153 26.8258 45.3008 26.6106 45.3008H25.1904C24.0877 45.302 23.0305 45.7406 22.2508 46.5203C21.471 47.3 21.0325 48.3572 21.0313 49.4599V50.17C21.0318 50.7079 21.2458 51.2237 21.6261 51.604C22.0065 51.9844 22.5222 52.1983 23.0601 52.1989H28.7409C29.2788 52.1983 29.7945 51.9844 30.1749 51.604C30.5552 51.2237 30.7692 50.7079 30.7697 50.17V49.4599C30.7712 48.4098 30.3741 47.3982 29.6586 46.6295C29.5121 46.4718 29.4342 46.2624 29.4421 46.0474C29.45 45.8323 29.543 45.6292 29.7006 45.4827C29.8583 45.3362 30.0676 45.2583 30.2827 45.2662C30.4978 45.2741 30.7009 45.3671 30.8474 45.5247C31.8425 46.5932 32.3949 47.9998 32.3928 49.4599V50.17C32.3917 51.1383 32.0066 52.0665 31.322 52.7512C30.6374 53.4358 29.7091 53.8209 28.7409 53.8219Z" fill="white"/>
<path d="M25.9012 45.3007C24.898 45.3007 23.9174 45.0032 23.0833 44.4459C22.2492 43.8886 21.5991 43.0964 21.2152 42.1696C20.8313 41.2428 20.7309 40.223 20.9266 39.2391C21.1223 38.2552 21.6053 37.3514 22.3147 36.6421C23.024 35.9327 23.9278 35.4497 24.9117 35.254C25.8956 35.0582 26.9154 35.1587 27.8422 35.5426C28.769 35.9265 29.5612 36.5766 30.1185 37.4107C30.6758 38.2448 30.9733 39.2254 30.9733 40.2286C30.9718 41.5733 30.4369 42.8626 29.4861 43.8135C28.5352 44.7643 27.246 45.2992 25.9012 45.3007ZM25.9012 36.7796C25.2191 36.7796 24.5522 36.9819 23.985 37.3608C23.4178 37.7398 22.9758 38.2785 22.7147 38.9087C22.4537 39.5389 22.3854 40.2324 22.5185 40.9015C22.6515 41.5705 22.98 42.1851 23.4624 42.6674C23.9447 43.1498 24.5593 43.4783 25.2283 43.6114C25.8974 43.7444 26.5909 43.6761 27.2211 43.4151C27.8513 43.154 28.39 42.712 28.769 42.1448C29.148 41.5776 29.3502 40.9108 29.3502 40.2286C29.3492 39.3142 28.9855 38.4375 28.3389 37.7909C27.6923 37.1443 26.8156 36.7806 25.9012 36.7796ZM49.8416 53.8218H44.1608C43.1926 53.8208 42.2643 53.4357 41.5797 52.7511C40.895 52.0664 40.5099 51.1382 40.5089 50.1699V49.4598C40.505 47.946 41.0988 46.4917 42.1613 45.4132C42.312 45.2596 42.5175 45.1721 42.7328 45.17C42.948 45.1679 43.1552 45.2514 43.3088 45.4021C43.4625 45.5529 43.55 45.7584 43.5521 45.9736C43.5541 46.1888 43.4706 46.3961 43.3199 46.5497C42.556 47.3254 42.1291 48.3712 42.132 49.4598V50.1699C42.1325 50.7078 42.3465 51.2236 42.7268 51.6039C43.1072 51.9843 43.6229 52.1982 44.1608 52.1988H49.8416C50.3795 52.1982 50.8952 51.9843 51.2755 51.6039C51.6559 51.2236 51.8698 50.7078 51.8704 50.1699V49.4598C51.8692 48.3571 51.4306 47.2999 50.6509 46.5202C49.8712 45.7405 48.814 45.3019 47.7113 45.3007H46.2911C46.0758 45.3007 45.8694 45.2152 45.7172 45.063C45.565 44.9108 45.4795 44.7044 45.4795 44.4892C45.4795 44.2739 45.565 44.0675 45.7172 43.9153C45.8694 43.7631 46.0758 43.6776 46.2911 43.6776H47.7113C49.2443 43.6794 50.714 44.2891 51.798 45.3731C52.882 46.4571 53.4917 47.9268 53.4935 49.4598V50.1699C53.4924 51.1382 53.1073 52.0664 52.4227 52.7511C51.738 53.4357 50.8098 53.8208 49.8416 53.8218Z" fill="white"/>
<path d="M46.9994 45.3007C45.9962 45.3007 45.0156 45.0033 44.1815 44.4459C43.3474 43.8886 42.6972 43.0964 42.3134 42.1696C41.9295 41.2428 41.829 40.223 42.0247 39.2391C42.2204 38.2552 42.7035 37.3514 43.4128 36.6421C44.1222 35.9327 45.026 35.4497 46.0098 35.254C46.9937 35.0583 48.0136 35.1587 48.9404 35.5426C49.8672 35.9265 50.6593 36.5766 51.2167 37.4107C51.774 38.2448 52.0715 39.2255 52.0715 40.2286C52.07 41.5734 51.5351 42.8626 50.5842 43.8135C49.6333 44.7644 48.3441 45.2992 46.9994 45.3007ZM46.9994 36.7796C46.3172 36.7796 45.6504 36.9819 45.0832 37.3609C44.516 37.7398 44.0739 38.2785 43.8129 38.9087C43.5518 39.539 43.4835 40.2324 43.6166 40.9015C43.7497 41.5705 44.0782 42.1851 44.5605 42.6675C45.0429 43.1498 45.6574 43.4783 46.3265 43.6114C46.9955 43.7445 47.689 43.6762 48.3193 43.4151C48.9495 43.1541 49.4881 42.712 49.8671 42.1448C50.2461 41.5776 50.4484 40.9108 50.4484 40.2286C50.4474 39.3142 50.0837 38.4375 49.4371 37.7909C48.7905 37.1443 47.9138 36.7806 46.9994 36.7796ZM36.4494 36.274C36.1831 36.2746 35.9192 36.2225 35.6731 36.1209C35.4269 36.0192 35.2032 35.8699 35.0149 35.6816L32.9861 33.6523C32.9099 33.5764 32.8068 33.5336 32.6992 33.5334H28.7398C28.2019 33.5329 27.6862 33.3189 27.3058 32.9386C26.9254 32.5582 26.7115 32.0425 26.7109 31.5046V21.7661C26.7115 21.2282 26.9254 20.7125 27.3058 20.3322C27.6862 19.9518 28.2019 19.7379 28.7398 19.7373H45.7821C46.32 19.7379 46.8357 19.9518 47.216 20.3322C47.5964 20.7125 47.8103 21.2282 47.8109 21.7661V31.5046C47.8103 32.0425 47.5964 32.5582 47.216 32.9386C46.8357 33.3189 46.32 33.5329 45.7821 33.5334H40.1996C40.092 33.5336 39.9889 33.5763 39.9127 33.6523L37.8838 35.6812C37.6956 35.8696 37.4719 36.0189 37.2257 36.1207C36.9796 36.2224 36.7157 36.2745 36.4494 36.274ZM28.7398 21.3604C28.6322 21.3605 28.5291 21.4033 28.453 21.4794C28.3769 21.5554 28.3342 21.6586 28.334 21.7661V31.5046C28.3342 31.6122 28.3769 31.7153 28.453 31.7914C28.5291 31.8674 28.6322 31.9102 28.7398 31.9104H32.6992C33.2369 31.912 33.7523 32.1256 34.1336 32.5047L36.1625 34.5336C36.2387 34.6095 36.3419 34.652 36.4495 34.652C36.557 34.6519 36.6601 34.6092 36.7362 34.5332L38.7651 32.5047C39.1464 32.1256 39.6618 31.912 40.1996 31.9104H45.7821C45.8896 31.9102 45.9928 31.8674 46.0688 31.7914C46.1449 31.7153 46.1877 31.6122 46.1878 31.5046V21.7661C46.1877 21.6586 46.1449 21.5554 46.0688 21.4794C45.9928 21.4033 45.8896 21.3605 45.7821 21.3604H28.7398Z" fill="white"/>
<path d="M41.3205 29.4759H33.2051C32.9899 29.4759 32.7834 29.3904 32.6312 29.2382C32.4791 29.086 32.3936 28.8796 32.3936 28.6644C32.3936 28.4492 32.4791 28.2427 32.6312 28.0905C32.7834 27.9384 32.9899 27.8529 33.2051 27.8529H41.3205C41.5357 27.8529 41.7421 27.9384 41.8943 28.0905C42.0465 28.2427 42.132 28.4492 42.132 28.6644C42.132 28.8796 42.0465 29.086 41.8943 29.2382C41.7421 29.3904 41.5357 29.4759 41.3205 29.4759ZM38.0743 25.4182H33.2051C32.9899 25.4182 32.7834 25.3327 32.6312 25.1805C32.4791 25.0284 32.3936 24.8219 32.3936 24.6067C32.3936 24.3915 32.4791 24.1851 32.6312 24.0329C32.7834 23.8807 32.9899 23.7952 33.2051 23.7952H38.0743C38.2895 23.7952 38.496 23.8807 38.6482 24.0329C38.8004 24.1851 38.8859 24.3915 38.8859 24.6067C38.8859 24.8219 38.8004 25.0284 38.6482 25.1805C38.496 25.3327 38.2895 25.4182 38.0743 25.4182Z" fill="#27C8BF"/>
<defs>
<linearGradient id="paint0_linear_14839_632" x1="72.3651" y1="0.865237" x2="-5.66748" y2="58.3834" gradientUnits="userSpaceOnUse">
<stop stop-color="#2D3A3D"/>
<stop offset="1" stop-color="#172123"/>
</linearGradient>
<linearGradient id="paint1_linear_14839_632" x1="0.536133" y1="0.865234" x2="81.1551" y2="60.8879" gradientUnits="userSpaceOnUse">
<stop stop-color="#E1F6FF" stop-opacity="0.23"/>
<stop offset="1" stop-color="white" stop-opacity="0.07"/>
</linearGradient>
</defs>
</svg>
