<svg width="137" height="31" viewBox="0 0 137 31" fill="none" xmlns="http://www.w3.org/2000/svg">
<g clip-path="url(#clip0_14839_11)">
<path d="M36.127 15.5423C36.127 10.2974 38.956 5.05249 46.7576 5.05249C54.5593 5.05249 57.4174 10.3267 57.4174 15.5423C57.4174 20.7579 54.6175 25.9709 46.7576 25.9709C38.8978 25.9709 36.127 20.8751 36.127 15.5423ZM46.7576 21.6849C50.8966 21.6849 51.9367 19.4367 51.9367 15.5423C51.9367 11.6479 50.894 9.36775 46.7576 9.36775C42.6213 9.36775 41.6077 11.5866 41.6077 15.5423C41.6077 19.498 42.6795 21.6849 46.7576 21.6849Z" fill="url(#paint0_linear_14839_11)"/>
<path d="M75.9238 15.5423C75.9238 10.2974 78.7528 5.05249 86.5545 5.05249C94.3561 5.05249 97.2143 10.3267 97.2143 15.5423C97.2143 20.7579 94.4143 25.9709 86.5545 25.9709C78.6946 25.9709 75.9238 20.8751 75.9238 15.5423ZM86.5518 21.6849C90.6908 21.6849 91.7309 19.4367 91.7309 15.5423C91.7309 11.6479 90.6882 9.36775 86.5518 9.36775C82.4155 9.36775 81.4019 11.5866 81.4019 15.5423C81.4019 19.498 82.4737 21.6849 86.5518 21.6849Z" fill="url(#paint1_linear_14839_11)"/>
<path d="M13.2465 0.43335V7.6148L14.4109 11.6237L13.2465 10.5263L6.15406 3.3901L3.21389 6.34952L10.3063 13.4883H0.276367V17.6731H10.3036L3.21124 24.8119L6.15141 27.7713L13.2438 20.6325V30.7281H17.4013V15.5847C17.4013 15.5847 17.4013 15.5794 17.4013 15.5767V0.43335H13.2438H13.2465Z" fill="url(#paint2_linear_14839_11)"/>
<path d="M70.8988 5.5603L67.9798 12.0945C67.7866 12.5606 67.5987 13.0188 67.4134 13.4796L65.9526 17.382L66.2225 14.3453C65.942 13.5968 65.6456 12.851 65.3307 12.0945L62.5017 5.5603H56.6055L64.0498 19.7367V25.4904H69.3189V19.7367L76.7024 5.5603H70.8961H70.8988Z" fill="url(#paint3_linear_14839_11)"/>
<path d="M129.832 5.5603H121.763L115.004 25.4904H120.244L121.525 21.7452H130.041L131.322 25.4904H136.591L129.832 5.5603ZM121.972 20.2482L123.345 16.3538L125.783 9.21762L128.702 17.7576H123.674L121.972 20.2482Z" fill="url(#paint4_linear_14839_11)"/>
<path d="M27.4179 21.3243L26.5975 24.3823L26.6055 21.1192V5.5603H21.3047V25.4904H35.508V21.3243H27.4179Z" fill="url(#paint5_linear_14839_11)"/>
<path d="M105.76 21.3243L104.939 24.3823L104.947 20.8395V5.5603H99.6465V25.4904H113.85V21.3243H105.76Z" fill="url(#paint6_linear_14839_11)"/>
<path d="M136.498 7.18376C136.498 8.10276 135.786 8.82463 134.873 8.82463C133.96 8.82463 133.259 8.10275 133.259 7.19442C133.259 6.28608 133.963 5.56421 134.884 5.56421C135.805 5.56421 136.498 6.26744 136.498 7.18643V7.18376ZM136.323 7.18376C136.323 6.36067 135.709 5.73202 134.881 5.73202C134.053 5.73202 133.426 6.37399 133.426 7.19176C133.426 8.00952 134.05 8.65149 134.87 8.65149C135.691 8.65149 136.321 8.0042 136.321 7.18376H136.323ZM135.283 7.46079L135.715 8.12673H135.466L135.066 7.50341C135.029 7.50874 134.997 7.50874 134.96 7.50874H134.481V8.12673H134.243V6.25945H134.96C135.416 6.25945 135.693 6.49918 135.693 6.87743C135.693 7.16512 135.543 7.36756 135.281 7.46079H135.283ZM135.461 6.87743C135.461 6.61372 135.273 6.46189 134.947 6.46189H134.479V7.30363H134.947C135.273 7.30363 135.461 7.14647 135.461 6.87743Z" fill="url(#paint7_linear_14839_11)"/>
</g>
<defs>
<linearGradient id="paint0_linear_14839_11" x1="57.4174" y1="5.05249" x2="34.5768" y2="22.1879" gradientUnits="userSpaceOnUse">
<stop stop-color="#2D3A3D"/>
<stop offset="1" stop-color="#172123"/>
</linearGradient>
<linearGradient id="paint1_linear_14839_11" x1="97.2143" y1="5.05249" x2="74.3736" y2="22.1879" gradientUnits="userSpaceOnUse">
<stop stop-color="#2D3A3D"/>
<stop offset="1" stop-color="#172123"/>
</linearGradient>
<linearGradient id="paint2_linear_14839_11" x1="17.4013" y1="0.433351" x2="-7.06325" y2="10.627" gradientUnits="userSpaceOnUse">
<stop stop-color="#2D3A3D"/>
<stop offset="1" stop-color="#172123"/>
</linearGradient>
<linearGradient id="paint3_linear_14839_11" x1="76.7024" y1="5.5603" x2="54.9982" y2="21.6924" gradientUnits="userSpaceOnUse">
<stop stop-color="#2D3A3D"/>
<stop offset="1" stop-color="#172123"/>
</linearGradient>
<linearGradient id="paint4_linear_14839_11" x1="136.591" y1="5.5603" x2="114.487" y2="23.2074" gradientUnits="userSpaceOnUse">
<stop stop-color="#2D3A3D"/>
<stop offset="1" stop-color="#172123"/>
</linearGradient>
<linearGradient id="paint5_linear_14839_11" x1="35.508" y1="5.5603" x2="16.8446" y2="15.3643" gradientUnits="userSpaceOnUse">
<stop stop-color="#2D3A3D"/>
<stop offset="1" stop-color="#172123"/>
</linearGradient>
<linearGradient id="paint6_linear_14839_11" x1="113.85" y1="5.5603" x2="95.1864" y2="15.3643" gradientUnits="userSpaceOnUse">
<stop stop-color="#2D3A3D"/>
<stop offset="1" stop-color="#172123"/>
</linearGradient>
<linearGradient id="paint7_linear_14839_11" x1="136.498" y1="5.56421" x2="132.963" y2="8.153" gradientUnits="userSpaceOnUse">
<stop stop-color="#2D3A3D"/>
<stop offset="1" stop-color="#172123"/>
</linearGradient>
<clipPath id="clip0_14839_11">
<rect width="136.314" height="30.2921" fill="white" transform="translate(0.276367 0.43335)"/>
</clipPath>
</defs>
</svg>
