<svg width="82" height="81" viewBox="0 0 82 81" fill="none" xmlns="http://www.w3.org/2000/svg">
<path fill-rule="evenodd" clip-rule="evenodd" d="M25.7079 0C25.7079 0 24.7831 12.8497 19.7782 18.4182C14.4522 24.344 8.58493 26.4813 0.747444 26.3607C0.500271 26.3568 0.251138 26.3508 0 26.3426V54.5893C42.8341 54.8398 53.9745 19.2775 54.2662 0.747444C54.2701 0.495093 54.2721 0.2459 54.2721 0H25.7079ZM53.5186 0.747444H26.3913C26.3554 1.10865 26.302 1.59898 26.2266 2.18943C26.0597 3.49692 25.7843 5.29981 25.35 7.28098C24.4903 11.2025 22.9768 15.9776 20.3341 18.9179C17.5203 22.0486 14.5348 24.1718 11.1791 25.4708C8.03634 26.6874 4.60628 27.1665 0.747444 27.1082V53.8426C21.7742 53.7596 34.8999 44.8864 42.8095 33.8186C50.6212 22.8878 53.3745 9.76915 53.5186 0.747444Z" fill="#86D7D2"/>
<path fill-rule="evenodd" clip-rule="evenodd" d="M55.7011 80.6162C55.7011 80.6162 56.6259 67.7664 61.6308 62.1979C66.9567 56.2722 72.824 54.1349 80.6615 54.2555C80.9087 54.2593 81.1578 54.2654 81.409 54.2736L81.409 26.0268C38.5748 25.7763 27.4345 61.3387 27.1428 79.8687C27.1388 80.1211 27.1369 80.3703 27.1369 80.6162L55.7011 80.6162ZM27.8903 79.8687L55.0176 79.8687C55.0536 79.5075 55.107 79.0172 55.1823 78.4267C55.3493 77.1192 55.6247 75.3164 56.059 73.3352C56.9187 69.4136 58.4321 64.6386 61.0749 61.6983C63.8887 58.5676 66.8741 56.4443 70.2299 55.1453C73.3726 53.9288 76.8027 53.4496 80.6615 53.508L80.6615 26.7735C59.6348 26.8566 46.5091 35.7298 38.5995 46.7975C30.7877 57.7284 28.0344 70.847 27.8903 79.8687Z" fill="#86D7D2"/>
</svg>
