<svg width="29" height="34" viewBox="0 0 29 34" fill="none" xmlns="http://www.w3.org/2000/svg">
<path d="M14.019 27.6762C13.8806 27.6762 13.7883 27.584 13.7883 27.4455L13.7883 18.0327C13.7883 17.8943 13.696 17.802 13.5576 17.802H4.14477C4.00634 17.802 3.91406 17.7097 3.91406 17.5713V15.9564C3.91406 15.818 4.00634 15.7257 4.14477 15.7257H13.5576C13.696 15.7257 13.7883 15.6334 13.7883 15.495V6.15136C13.7883 6.01294 13.8806 5.92065 14.019 5.92065H15.6109C15.7493 5.92065 15.8416 6.01294 15.8416 6.15136V15.495C15.8416 15.6334 15.9339 15.7257 16.0723 15.7257L25.4389 15.7257C25.5774 15.7257 25.6697 15.818 25.6697 15.9564V17.5713C25.6697 17.7097 25.5774 17.802 25.4389 17.802H16.0723C15.9339 17.802 15.8416 17.8943 15.8416 18.0327L15.8416 27.4455C15.8416 27.584 15.7493 27.6762 15.6109 27.6762H14.019Z" fill="#27C8BF"/>
</svg>
