<svg width="60" height="60" viewBox="0 0 60 60" fill="none" xmlns="http://www.w3.org/2000/svg">
<rect x="0.75" y="0.75" width="58.5" height="58.5" rx="29.25" stroke="#000000" stroke-width="1.5"/>
<path fill-rule="evenodd" clip-rule="evenodd" d="M26.2044 23.5838C26.3116 23.1837 26.7228 22.9463 27.1229 23.0535L36.5815 25.5879C36.7736 25.6394 36.9374 25.7651 37.0369 25.9374C37.1364 26.1096 37.1633 26.3143 37.1118 26.5065L34.5774 35.965C34.4702 36.3651 34.059 36.6026 33.6589 36.4954C33.2588 36.3882 33.0213 35.9769 33.1285 35.5768L35.4688 26.8427L26.7347 24.5024C26.3346 24.3952 26.0972 23.9839 26.2044 23.5838Z" fill="#000000"/>
<path fill-rule="evenodd" clip-rule="evenodd" d="M22.9629 34.0631C22.7558 33.7044 22.8787 33.2457 23.2374 33.0386L35.4912 25.9639C35.8499 25.7568 36.3086 25.8797 36.5157 26.2384C36.7228 26.5971 36.5999 27.0558 36.2412 27.2629L23.9874 34.3376C23.6287 34.5447 23.17 34.4218 22.9629 34.0631Z" fill="#000000"/>
</svg>
